<svg width="1200" height="630" viewBox="0 0 1200 630" xmlns="http://www.w3.org/2000/svg">
  <defs>
    <radialGradient id="glowTop" cx="15%" cy="0%" r="60%">
      <stop offset="0%" stop-color="#0ea5e9" stop-opacity="0.35"/>
      <stop offset="100%" stop-color="#0ea5e9" stop-opacity="0"/>
    </radialGradient>
    <radialGradient id="glowBottom" cx="90%" cy="100%" r="55%">
      <stop offset="0%" stop-color="#38bdf8" stop-opacity="0.22"/>
      <stop offset="100%" stop-color="#38bdf8" stop-opacity="0"/>
    </radialGradient>
  </defs>

  <rect width="1200" height="630" fill="#020617"/>
  <rect width="1200" height="630" fill="url(#glowTop)"/>
  <rect width="1200" height="630" fill="url(#glowBottom)"/>

  <g opacity="0.06" stroke="#ffffff" stroke-width="1">
    <line x1="0" y1="126" x2="1200" y2="126"/>
    <line x1="0" y1="252" x2="1200" y2="252"/>
    <line x1="0" y1="378" x2="1200" y2="378"/>
    <line x1="0" y1="504" x2="1200" y2="504"/>
    <line x1="200" y1="0" x2="200" y2="630"/>
    <line x1="400" y1="0" x2="400" y2="630"/>
    <line x1="600" y1="0" x2="600" y2="630"/>
    <line x1="800" y1="0" x2="800" y2="630"/>
    <line x1="1000" y1="0" x2="1000" y2="630"/>
  </g>

  <rect x="88" y="88" width="230" height="56" rx="28" fill="#0c1424" stroke="#1e293b"/>
  <circle cx="120" cy="116" r="6" fill="#34d399"/>
  <text x="140" y="122" font-family="Manrope, Arial, sans-serif" font-size="20" font-weight="700" fill="#e2e8f0">Disponible para trabajar</text>

  <text x="88" y="300" font-family="Manrope, Arial, sans-serif" font-size="82" font-weight="800" fill="#f8fafc">Facu Almiento</text>
  <text x="88" y="368" font-family="Manrope, Arial, sans-serif" font-size="40" font-weight="700" fill="#38bdf8">Desarrollador Web Full Stack Junior</text>

  <text x="88" y="430" font-family="Manrope, Arial, sans-serif" font-size="26" font-weight="500" fill="#94a3b8">Proyectos reales &#183; React, Node.js, SQL &#183; Formacion en Coderhouse</text>

  <g font-family="Manrope, Arial, sans-serif" font-size="22" font-weight="700" fill="#cbd5e1">
    <rect x="88" y="486" width="120" height="48" rx="24" fill="#0c1424" stroke="#1e293b"/>
    <text x="112" y="516">React</text>

    <rect x="222" y="486" width="150" height="48" rx="24" fill="#0c1424" stroke="#1e293b"/>
    <text x="246" y="516">Node.js</text>

    <rect x="386" y="486" width="100" height="48" rx="24" fill="#0c1424" stroke="#1e293b"/>
    <text x="410" y="516">SQL</text>
  </g>

  <text x="1112" y="562" text-anchor="end" font-family="Manrope, Arial, sans-serif" font-size="24" font-weight="800" fill="#f8fafc">Facu<tspan fill="#38bdf8">Dev</tspan></text>
</svg>
